<?xml version="1.0" standalone="no"?>
<!DOCTYPE svg PUBLIC "-//W3C//DTD SVG 20010904//EN"
 "http://www.w3.org/TR/2001/REC-SVG-20010904/DTD/svg10.dtd">
<svg version="1.0" xmlns="http://www.w3.org/2000/svg"
 width="389.000000pt" height="248.000000pt" viewBox="0 0 389.000000 248.000000"
 preserveAspectRatio="xMidYMid meet">
<metadata>
Created by potrace 1.16, written by Peter Selinger 2001-2019
</metadata>
<g transform="translate(0.000000,248.000000) scale(0.100000,-0.100000)"
fill="#000000" stroke="none">
<path d="M1530 2025 c0 -115 0 -115 110 -115 110 0 110 0 110 -277 0 -153 1
-471 3 -708 2 -420 2 -431 24 -471 12 -22 40 -57 62 -77 36 -33 47 -37 94 -37
52 0 52 0 50 358 -1 196 -3 400 -4 452 -1 52 -1 113 0 135 0 22 1 54 2 70 0
17 1 41 0 55 0 14 0 104 -1 200 -1 96 2 203 6 238 6 62 6 62 115 62 109 0 109
0 109 115 0 115 0 115 -340 115 -340 0 -340 0 -340 -115z m170 70 c0 -8 -7
-15 -15 -15 -16 0 -20 12 -8 23 11 12 23 8 23 -8z m230 -544 c0 -18 -57 -57
-67 -47 -8 8 21 55 36 59 29 8 31 7 31 -12z m8 -147 c-3 -18 -34 -42 -42 -33
-3 3 -3 15 1 27 6 26 46 32 41 6z"/>
<path d="M1160 1525 c0 -85 0 -85 165 -85 165 0 165 0 165 -245 0 -245 0 -245
-80 -245 -80 0 -80 0 -80 233 0 129 -3 237 -7 241 -4 3 -42 -28 -85 -71 -78
-78 -78 -78 -78 -410 0 -333 0 -333 85 -333 85 0 85 0 85 85 0 85 0 85 165 85
165 0 165 0 165 415 0 415 0 415 -250 415 -250 0 -250 0 -250 -85z"/>
<path d="M2047 1603 c-4 -3 -7 -197 -7 -429 0 -424 0 -424 178 -426 177 -3
177 -3 180 -85 3 -83 3 -83 92 -83 90 0 90 0 90 340 0 339 0 339 -81 417 -44
43 -85 79 -90 81 -5 2 -10 -103 -11 -245 -3 -248 -3 -248 -88 -248 -85 0 -85
0 -88 252 -2 253 -2 253 175 255 178 3 178 3 178 88 0 85 0 85 -261 88 -143 1
-263 -1 -267 -5z"/>
</g>
</svg>
